<svg xmlns="http://www.w3.org/2000/svg" width="80" height="80" viewBox="0 0 80 80"><defs><style>.a{fill:#fff;}.b,.e{fill:none;stroke-miterlimit:10;}.b{stroke:#9b5a21;stroke-dasharray:3;}.c{fill:#231f20;}.d{fill:#e19a26;}.e{stroke:#000;}</style></defs><g transform="translate(-1687 103)"><rect class="a" width="80" height="80" rx="10" transform="translate(1687 -103)"/><g transform="translate(1065.864 -530.564)"><g transform="translate(630.218 431.606)"><path class="b" d="M700.137,458.22l-6.352.674c-2.551-.77-.1-2.069-.1-2.069s7.934-4.534,8.9-5.053c1.5-.8,1.877-3.32,1.877-3.32l1.3-13.282c-.722-5.2-8.807-3.176-8.807-3.176L671.7,442.243c-8.47,6.256-14.726,51.2-14.533,55.341s4.427,3.85,4.427,3.85c37.344-4.042,42.348-25.061,42.348-25.061l1.54-13.678A5.391,5.391,0,0,0,700.137,458.22Zm2.03,17.377s-4.61,19.361-39.01,23.085c0,0-3.9.266-4.078-3.546s5.586-45.216,13.388-50.979l23.273-9.442s7.447-1.862,8.112,2.926l-48.109,18.77L649.2,481.329l41.969-16.757,1.65-4.016,5.851-.621a4.966,4.966,0,0,1,4.92,4.123Z" transform="translate(-649.195 -431.606)"/><path class="b" d="M778.7,624.119l-13.891,5.89-4.059,14.283s12.728-5.789,15.986-8.1c2.909-2.062,4.81-8.835,4.81-8.835S782.922,623.138,778.7,624.119Zm.153,4.72s-2.051,5.6-3.634,6.674-12.076,6.118-12.076,6.118l3.066-10.79,10.493-4.45C779.892,625.65,778.854,628.839,778.854,628.839Z" transform="translate(-738.988 -586.443)"/></g><path class="c" d="M742.552,468.893l-6.352.674c-2.55-.77-.1-2.069-.1-2.069s7.934-4.534,8.9-5.053c1.5-.8,1.877-3.321,1.877-3.321l1.3-13.282c-.722-5.2-8.806-3.176-8.806-3.176l-25.265,10.25c-8.47,6.256-14.726,51.2-14.533,55.342s4.427,3.85,4.427,3.85c37.344-4.042,42.348-25.061,42.348-25.061l1.54-13.678A5.391,5.391,0,0,0,742.552,468.893Zm2.03,17.377s-4.61,19.361-39.01,23.085c0,0-3.9.266-4.078-3.546s5.586-45.216,13.388-50.979l23.273-9.442s7.447-1.862,8.112,2.926l-1.2,10.115s-.366,2.36-1.729,3.059c-.9.462-7.1,4.048-8.2,4.654-1.722.945-3.058,3.523.089,5.086l5.851-.621A4.966,4.966,0,0,1,746,474.73Z" transform="translate(-59.528 -8.591)"/><path class="c" d="M784.174,632.4l-13.891,5.89-5.4,13.475,1.338.808s12.727-5.789,15.986-8.1c2.909-2.062,4.81-8.835,4.81-8.835S788.395,631.415,784.174,632.4Zm.153,4.719s-2.052,5.6-3.634,6.674-12.077,6.118-12.077,6.118l3.066-10.79,10.494-4.45C785.365,633.928,784.327,637.116,784.327,637.116Z" transform="translate(-112.099 -161.5)"/><g transform="translate(631.024 432.413)"><path class="d" d="M704.272,462.355l-6.352.674c-2.55-.77-.1-2.069-.1-2.069s7.933-4.534,8.9-5.053c1.5-.8,1.877-3.321,1.877-3.321l1.3-13.282c-.722-5.2-8.806-3.176-8.806-3.176l-25.265,10.25c-8.47,6.256-14.726,51.2-14.533,55.342s4.427,3.85,4.427,3.85c37.344-4.042,42.348-25.061,42.348-25.061l1.54-13.678A5.391,5.391,0,0,0,704.272,462.355Zm2.03,17.377s-4.61,19.361-39.01,23.085c0,0-3.9.266-4.078-3.546s5.586-45.216,13.387-50.979l23.273-9.442s7.447-1.862,8.112,2.926l-48.108,18.77-6.548,24.918L695.3,468.707l1.65-4.017,5.851-.621a4.966,4.966,0,0,1,4.921,4.123Z" transform="translate(-653.33 -435.741)"/><path class="d" d="M782.836,628.254l-13.891,5.89-4.059,14.284s12.727-5.789,15.986-8.1c2.909-2.062,4.81-8.835,4.81-8.835S787.057,627.272,782.836,628.254Zm.153,4.72s-2.051,5.6-3.634,6.674-12.077,6.118-12.077,6.118l3.066-10.79,10.493-4.45C784.027,629.785,782.989,632.974,782.989,632.974Z" transform="translate(-743.123 -590.578)"/></g><g transform="translate(627.181 446.598)"><path d="M635.2,592.416l7.986-3.1a13.517,13.517,0,0,1,3.72-1,3.87,3.87,0,0,1,2.241.409,2.63,2.63,0,0,1,1.193,1.481,5.706,5.706,0,0,1,.253,2.255,8.326,8.326,0,0,1-.826,3.344,10.33,10.33,0,0,1-1.894,2.532,11.917,11.917,0,0,1-2.542,1.946,25.61,25.61,0,0,1-3.338,1.614l-8.361,3.2Zm5.038.786-.718,6.894,1.36-.523a11.417,11.417,0,0,0,2.486-1.218,4.273,4.273,0,0,0,1.213-1.379,5.858,5.858,0,0,0,.587-2.334q.175-2-.656-2.385t-2.922.421Z" transform="translate(-633.631 -572.727)"/><path d="M728.45,550.613l13.77-5.4-.068,2.632-8.661,3.391-.1,1.974,8.1-3.166-.025,2.5-8.183,3.189-.077,2.434,9.154-3.56.04,2.759-14.7,5.7Z" transform="translate(-709.347 -538.043)"/><path d="M805.131,515.323l5.247-2.07,3.842,7.309,3.317-10.144,4.945-1.966-5.329,14.41-5.634,2.2Z" transform="translate(-771.674 -508.452)"/></g><g transform="translate(625.971 445.59)"><path class="a" d="M629,587.248l7.986-3.1a13.5,13.5,0,0,1,3.72-1,3.866,3.866,0,0,1,2.241.409,2.63,2.63,0,0,1,1.193,1.481,5.706,5.706,0,0,1,.253,2.255,8.329,8.329,0,0,1-.826,3.344,10.328,10.328,0,0,1-1.894,2.532,11.906,11.906,0,0,1-2.542,1.946,25.582,25.582,0,0,1-3.338,1.615l-8.361,3.2Zm5.038.786-.718,6.894,1.36-.523a11.412,11.412,0,0,0,2.486-1.218,4.272,4.272,0,0,0,1.214-1.379,5.859,5.859,0,0,0,.587-2.334q.175-2-.656-2.384t-2.922.421Z" transform="translate(-627.429 -567.559)"/><path class="a" d="M722.248,545.445l13.77-5.4-.068,2.632-8.661,3.392-.1,1.974,8.1-3.166-.025,2.5-8.183,3.189L727.007,553l9.154-3.56.04,2.759-14.7,5.7Z" transform="translate(-703.145 -532.874)"/><path class="a" d="M798.929,510.154l5.247-2.07,3.842,7.309,3.317-10.144,4.945-1.966-5.329,14.41-5.634,2.2Z" transform="translate(-765.472 -503.284)"/></g><g transform="translate(625.618 445.06)"><path class="e" d="M627.185,584.531l7.986-3.1a13.516,13.516,0,0,1,3.72-1,3.868,3.868,0,0,1,2.241.41,2.629,2.629,0,0,1,1.193,1.481,5.7,5.7,0,0,1,.253,2.255,8.328,8.328,0,0,1-.826,3.344,10.334,10.334,0,0,1-1.894,2.532,11.911,11.911,0,0,1-2.542,1.946,25.607,25.607,0,0,1-3.338,1.615l-8.361,3.2Zm5.038.786-.718,6.894,1.36-.523a11.422,11.422,0,0,0,2.486-1.218,4.276,4.276,0,0,0,1.213-1.379,5.86,5.86,0,0,0,.587-2.334q.175-2-.656-2.384t-2.922.421Z" transform="translate(-625.618 -564.843)"/><path class="e" d="M720.437,542.729l13.77-5.4-.068,2.632-8.661,3.392-.1,1.974,8.1-3.166-.025,2.5-8.182,3.189-.077,2.434,9.154-3.56.04,2.759-14.7,5.7Z" transform="translate(-701.334 -530.158)"/><path class="e" d="M797.118,507.438l5.247-2.07,3.841,7.309,3.317-10.144,4.945-1.966-5.329,14.41-5.634,2.2Z" transform="translate(-763.661 -500.568)"/></g><path class="c" d="M653.864,602.993l40.628-15.53,1.31-3.037,1.118-.143L695.3,588.27,653.33,605.027Z" transform="translate(-22.306 -122.891)"/></g></g></svg>