<svg xmlns="http://www.w3.org/2000/svg" width="144.734" height="164.952" viewBox="0 0 144.734 164.952"><defs><style>.a,.e{fill:none;stroke-miterlimit:10;}.a{stroke:#9b5a21;stroke-dasharray:3;}.b{fill:#231f20;}.c{fill:#e19a26;}.d{fill:#fff;}.e{stroke:#000;}</style></defs><g transform="translate(-625.02 -431.092)"><g transform="translate(636.135 431.606)"><path class="a" d="M765.678,492.46,751.153,494c-5.832-1.761-.22-4.732-.22-4.732s18.141-10.367,20.357-11.554c3.423-1.833,4.291-7.592,4.291-7.592l2.971-30.37c-1.651-11.884-20.137-7.263-20.137-7.263l-57.769,23.438c-19.366,14.3-33.671,117.078-33.231,126.541s10.123,8.8,10.123,8.8c85.388-9.243,96.832-57.3,96.832-57.3l3.521-31.276C775.911,492.24,765.678,492.46,765.678,492.46Zm4.641,39.733s-10.542,44.271-89.2,52.785c0,0-8.92.608-9.325-8.109s12.772-103.388,30.611-116.565l53.214-21.59s17.029-4.257,18.549,6.69l-110,42.919L649.2,545.3l95.964-38.317,3.773-9.184,13.38-1.419s9.427-.2,11.251,9.427Z" transform="translate(-649.195 -431.606)"/><path class="a" d="M801.794,624.31l-31.762,13.468-9.281,32.66s29.1-13.236,36.554-18.518c6.651-4.715,11-20.2,11-20.2S811.446,622.065,801.794,624.31Zm.35,10.791s-4.691,12.814-8.309,15.261-27.614,13.99-27.614,13.99l7.011-24.672,23.994-10.174C804.518,627.81,802.144,635.1,802.144,635.1Z" transform="translate(-710.988 -538.161)"/></g><path class="b" d="M797.846,503.133l-14.525,1.54c-5.832-1.76-.22-4.732-.22-4.732s18.141-10.367,20.357-11.553c3.423-1.833,4.291-7.593,4.291-7.593l2.971-30.37c-1.651-11.884-20.136-7.263-20.136-7.263L732.815,466.6c-19.366,14.3-33.671,117.078-33.231,126.542s10.123,8.8,10.123,8.8c85.388-9.243,96.832-57.3,96.832-57.3l3.521-31.276C808.079,502.914,797.846,503.133,797.846,503.133Zm4.641,39.734s-10.542,44.271-89.2,52.785c0,0-8.92.608-9.325-8.109s12.772-103.388,30.611-116.565l53.214-21.59s17.029-4.257,18.549,6.69L803.6,479.207s-.836,5.4-3.953,6.994c-2.061,1.057-16.224,9.255-18.752,10.643-3.938,2.162-6.993,8.056.2,11.629l13.38-1.419s9.427-.2,11.251,9.427Z" transform="translate(-40.966 -5.912)"/><path class="b" d="M808.988,632.587l-31.762,13.468-12.34,30.812,3.06,1.848s29.1-13.236,36.553-18.518c6.651-4.715,11-20.2,11-20.2S818.641,630.343,808.988,632.587Zm.351,10.791s-4.691,12.814-8.309,15.261-27.614,13.989-27.614,13.989l7.011-24.672,23.994-10.174C811.713,636.087,809.339,643.379,809.339,643.379Z" transform="translate(-77.144 -111.14)"/><g transform="translate(637.98 433.451)"><path class="c" d="M769.812,496.595l-14.525,1.541c-5.832-1.761-.22-4.732-.22-4.732s18.14-10.367,20.357-11.554c3.423-1.833,4.291-7.593,4.291-7.593l2.971-30.37c-1.651-11.884-20.136-7.262-20.136-7.262l-57.769,23.437c-19.367,14.3-33.671,117.079-33.231,126.542s10.123,8.8,10.123,8.8c85.388-9.243,96.832-57.3,96.832-57.3l3.521-31.276C780.046,496.375,769.812,496.595,769.812,496.595Zm4.641,39.734s-10.542,44.271-89.2,52.785c0,0-8.92.608-9.325-8.109S688.7,477.617,706.542,464.44l53.214-21.59s17.029-4.257,18.549,6.69l-110,42.919L653.33,549.435l95.964-38.317,3.772-9.184,13.38-1.419s9.427-.2,11.251,9.427Z" transform="translate(-653.33 -435.741)"/><path class="c" d="M805.929,628.445l-31.762,13.468-9.281,32.66s29.1-13.237,36.554-18.518c6.651-4.715,11-20.2,11-20.2S815.581,626.2,805.929,628.445Zm.35,10.792s-4.69,12.814-8.309,15.261-27.614,13.989-27.614,13.989l7.011-24.672,23.994-10.174C808.653,631.945,806.279,639.236,806.279,639.236Z" transform="translate(-715.123 -542.296)"/></g><g transform="translate(629.192 465.885)"><path d="M637.214,597.7l18.261-7.078a30.905,30.905,0,0,1,8.507-2.287,8.848,8.848,0,0,1,5.123.936,6.014,6.014,0,0,1,2.729,3.387,13.047,13.047,0,0,1,.579,5.157,19.039,19.039,0,0,1-1.888,7.645,23.624,23.624,0,0,1-4.33,5.791,27.243,27.243,0,0,1-5.812,4.449,58.57,58.57,0,0,1-7.632,3.691l-19.118,7.327Zm11.519,1.8-1.643,15.763,3.109-1.2a26.106,26.106,0,0,0,5.684-2.784,9.769,9.769,0,0,0,2.775-3.153A13.4,13.4,0,0,0,660,602.8q.4-4.563-1.5-5.452t-6.682.964Z" transform="translate(-633.631 -552.685)"/><path d="M729.417,557.559,760.9,545.215l-.156,6.018-19.8,7.755-.228,4.513,18.526-7.239-.057,5.723-18.71,7.292-.176,5.566,20.93-8.14.092,6.309L727.7,586.035Z" transform="translate(-685.737 -528.816)"/><path d="M805.131,524.162l12-4.733,8.784,16.713,7.584-23.194,11.307-4.5L832.619,541.4l-12.883,5.036Z" transform="translate(-728.629 -508.452)"/></g><g transform="translate(626.426 463.58)"><path class="d" d="M631.012,592.535l18.261-7.077a30.873,30.873,0,0,1,8.507-2.287,8.84,8.84,0,0,1,5.123.936,6.013,6.013,0,0,1,2.729,3.387,13.045,13.045,0,0,1,.579,5.157,19.042,19.042,0,0,1-1.888,7.646,23.615,23.615,0,0,1-4.33,5.79,27.223,27.223,0,0,1-5.812,4.449,58.505,58.505,0,0,1-7.632,3.692l-19.118,7.327Zm11.519,1.8L640.888,610.1,644,608.9a26.1,26.1,0,0,0,5.684-2.784,9.772,9.772,0,0,0,2.775-3.153,13.4,13.4,0,0,0,1.342-5.336q.4-4.563-1.5-5.452t-6.682.964Z" transform="translate(-627.429 -547.517)"/><path class="d" d="M723.215,552.39,754.7,540.046l-.156,6.018-19.8,7.755-.228,4.513,18.526-7.239-.057,5.722-18.71,7.292-.176,5.567,20.93-8.14.092,6.309L721.5,580.867Z" transform="translate(-679.535 -523.647)"/><path class="d" d="M798.929,518.993l12-4.732,8.784,16.712,7.584-23.194,11.307-4.5-12.185,32.95-12.883,5.036Z" transform="translate(-722.427 -503.284)"/></g><g transform="translate(625.618 462.368)"><path class="e" d="M629.2,589.819l18.261-7.078a30.9,30.9,0,0,1,8.507-2.287,8.844,8.844,0,0,1,5.123.937,6.013,6.013,0,0,1,2.729,3.386,13.037,13.037,0,0,1,.578,5.157,19.042,19.042,0,0,1-1.888,7.646,23.628,23.628,0,0,1-4.33,5.79,27.236,27.236,0,0,1-5.812,4.449,58.565,58.565,0,0,1-7.632,3.692l-19.118,7.326Zm11.519,1.8-1.642,15.764,3.109-1.2a26.117,26.117,0,0,0,5.684-2.784,9.776,9.776,0,0,0,2.775-3.153,13.4,13.4,0,0,0,1.342-5.336q.4-4.563-1.5-5.452t-6.681.964Z" transform="translate(-625.618 -544.8)"/><path class="e" d="M721.4,549.674l31.486-12.344-.156,6.018-19.8,7.755-.228,4.513,18.526-7.239-.057,5.723-18.71,7.292-.176,5.566,20.93-8.14.092,6.309-33.624,13.023Z" transform="translate(-677.724 -520.931)"/><path class="e" d="M797.118,516.278l12-4.732,8.784,16.712,7.584-23.194,11.307-4.5-12.184,32.95-12.883,5.036Z" transform="translate(-720.616 -500.568)"/></g><path class="b" d="M654.552,627.065l92.9-35.51,3-6.944,2.555-.328-3.707,9.116L653.33,631.716Z" transform="translate(-15.35 -84.571)"/></g></svg>